# xmcd CD database file
#
# Track frame offsets:
#	150
#	13094
#	25699
#	37105
#	48315
#	61049
#	70917
#	83073
#	96754
#	108597
#	123265
#
# Disc length: 1800 seconds
#
# Revision: 0
# Processed by: cddbd v1.5.1PL2 Copyright (c) Steve Scherf et al.
# Submitted via: CDex 1.40Beta9
#
DISCID=8707060b
DTITLE=Lawrence Miller - A Collection of Story Songs
DYEAR=2005
DGENRE=Country
TTITLE0=Don't Take Me Away Jesus
TTITLE1=Easy As One Two Three
TTITLE2=I Wish (Pennies From Heaven)
TTITLE3=Lonesome Isolation
TTITLE4=The Nightime Ocean Sand
TTITLE5=Look Up At The Stars
TTITLE6=Hoochy Cooin
TTITLE7=Yellow gold
TTITLE8=Don't Let Evil Beat Me Jesus
TTITLE9=Path of Least Resistence (I Climb the Ladder)
TTITLE10=Sitting On My Doorstep
EXTD=YEAR: 2005 ID3G: 2
EXTT0=
EXTT1=
EXTT2=
EXTT3=
EXTT4=
EXTT5=
EXTT6=
EXTT7=
EXTT8=
EXTT9=
EXTT10=
PLAYORDER=
